<svg width="469" height="50" viewBox="0 0 469 50" fill="none" xmlns="http://www.w3.org/2000/svg">
<path d="M251.143 24.6157L248.861 21.263C248.559 20.7873 248.151 20.3882 247.668 20.0967C247.186 19.8053 246.643 19.6296 246.081 19.5833C246.445 19.1529 246.704 18.6441 246.838 18.0968C246.973 17.5496 246.979 16.9786 246.855 16.4286L246.102 12.4443C246.076 12.309 246.01 12.1847 245.912 12.0875C245.815 11.9904 245.69 11.9249 245.555 11.8997L241.57 11.1458C241.02 11.0225 240.449 11.0283 239.902 11.1627C239.355 11.297 238.846 11.5564 238.416 11.9204C238.37 11.3586 238.194 10.8152 237.902 10.3327C237.611 9.85018 237.212 9.44179 236.736 9.13956L233.384 6.85831C233.271 6.78103 233.137 6.73969 233 6.73969C232.863 6.73969 232.729 6.78103 232.616 6.85831L229.263 9.14074C228.787 9.44304 228.388 9.85139 228.097 10.3338C227.805 10.8162 227.629 11.3595 227.583 11.9212C227.153 11.5572 226.644 11.2979 226.097 11.1635C225.549 11.0291 224.978 11.0233 224.429 11.1466L220.444 11.9005C220.309 11.9261 220.185 11.9917 220.088 12.0889C219.991 12.186 219.925 12.3101 219.9 12.445L219.146 16.4294C219.023 16.9793 219.029 17.5502 219.163 18.0974C219.297 18.6447 219.557 19.1534 219.92 19.5837C219.359 19.6299 218.815 19.8056 218.333 20.0971C217.85 20.3885 217.442 20.7877 217.139 21.2634L214.858 24.6153C214.781 24.7285 214.739 24.8625 214.739 24.9997C214.739 25.1369 214.781 25.2709 214.858 25.3841L217.139 28.7368C217.442 29.2125 217.85 29.6116 218.333 29.903C218.815 30.1945 219.359 30.3702 219.92 30.4165C219.557 30.8469 219.297 31.3557 219.163 31.903C219.029 32.4503 219.023 33.0213 219.146 33.5712L219.9 37.5556C219.925 37.6905 219.991 37.8146 220.088 37.9118C220.185 38.0089 220.309 38.0745 220.444 38.1001L224.429 38.854C224.697 38.9053 224.97 38.9314 225.244 38.9321C226.101 38.9479 226.934 38.6466 227.583 38.086C227.63 38.6472 227.805 39.1899 228.097 39.6717C228.388 40.1536 228.787 40.5614 229.263 40.8634L232.614 43.1446C232.728 43.222 232.862 43.2634 232.999 43.2634C233.136 43.2634 233.27 43.222 233.383 43.1446L236.736 40.863C237.211 40.5611 237.61 40.1534 237.902 39.6716C238.193 39.1898 238.369 38.6472 238.416 38.086C239.064 38.6477 239.897 38.95 240.755 38.9349C241.029 38.9342 241.302 38.908 241.571 38.8568L245.555 38.1028C245.69 38.0776 245.815 38.0122 245.913 37.915C246.01 37.8179 246.076 37.6936 246.102 37.5583L246.856 33.5739C246.979 33.024 246.973 32.4531 246.839 31.9059C246.704 31.3587 246.445 30.85 246.081 30.4196C246.643 30.3734 247.186 30.1977 247.669 29.9063C248.151 29.6149 248.56 29.2157 248.862 28.74L251.143 25.388C251.222 25.2744 251.263 25.1397 251.263 25.0018C251.263 24.8639 251.221 24.7293 251.143 24.6157ZM241.32 12.4884L244.847 13.1556L245.512 16.6798C245.601 17.0424 245.601 17.4215 245.51 17.7837C245.418 18.1459 245.24 18.4802 244.989 18.7571L244.177 19.5704H238.43V13.8228L239.241 13.011C239.518 12.7599 239.853 12.5809 240.215 12.4897C240.578 12.3986 240.957 12.3981 241.32 12.4884ZM232.033 31.7114L228.938 34.8095V30.4298H230.752L232.033 31.7114ZM233.967 18.2888L237.063 15.1907V19.5704H235.248L233.967 18.2888ZM238.744 25.0001L237.263 26.4818C237.135 26.6099 237.063 26.7837 237.063 26.965V29.0626H234.965C234.784 29.0627 234.61 29.1348 234.482 29.263L233 30.7443L231.518 29.263C231.39 29.1348 231.216 29.0627 231.035 29.0626H228.938V26.965C228.937 26.7837 228.865 26.6099 228.737 26.4818L227.258 25.0001L228.739 23.5185C228.867 23.39 228.938 23.2163 228.938 23.0353V20.9376H231.035C231.216 20.9375 231.39 20.8654 231.518 20.7372L233 19.2579L234.482 20.7392C234.61 20.8674 234.784 20.9395 234.965 20.9396H237.063V23.0372C237.063 23.2185 237.135 23.3923 237.263 23.5204L238.744 25.0001ZM230.752 19.5704H228.938V15.1907L232.033 18.2888L230.752 19.5704ZM227.57 22.7521L226.289 24.0333L223.191 20.9376H227.57V22.7521ZM226.289 25.9669L227.57 27.2482V29.0626H223.191L226.289 25.9669ZM235.248 30.4298H237.063V34.8095L233.967 31.7114L235.248 30.4298ZM238.43 27.2482L239.711 25.9669L242.809 29.0626H238.43V27.2482ZM239.711 24.0333L238.43 22.7521V20.9376H242.809L239.711 24.0333ZM230.031 10.2681L233 8.24894L235.966 10.2677C236.285 10.4607 236.552 10.729 236.743 11.0491C236.934 11.3692 237.044 11.7313 237.063 12.1036V13.2548L233 17.322L228.938 13.2568V12.1056C228.956 11.7332 229.065 11.371 229.256 11.0506C229.446 10.7302 229.713 10.4616 230.031 10.2681ZM220.488 16.6818L221.155 13.1556L224.68 12.4884C225.042 12.3983 225.421 12.3989 225.784 12.49C226.146 12.5812 226.48 12.7601 226.757 13.011L227.57 13.8228V19.5704H221.823L221.011 18.7587C220.76 18.4818 220.582 18.1476 220.49 17.7854C220.399 17.4233 220.399 17.0443 220.488 16.6818ZM218.268 27.9689L216.249 25.0001L218.268 22.0341C218.461 21.7151 218.729 21.4483 219.049 21.2571C219.369 21.066 219.731 20.9563 220.104 20.9376H221.255L225.322 25.0001L221.257 29.0626H220.105C219.733 29.0445 219.371 28.9353 219.051 28.7446C218.73 28.5539 218.461 28.2875 218.268 27.9689ZM224.682 37.5118L221.155 36.8446L220.488 33.3204C220.399 32.9578 220.399 32.5788 220.49 32.2165C220.582 31.8543 220.76 31.52 221.011 31.2431L221.823 30.4298H227.57V36.1775L226.759 36.9892C226.482 37.24 226.148 37.4188 225.785 37.5099C225.423 37.6011 225.044 37.6017 224.682 37.5118ZM235.969 39.7321L233 41.7513L230.034 39.7325C229.715 39.5396 229.448 39.2713 229.257 38.9512C229.066 38.6311 228.956 38.269 228.938 37.8966V36.7435L233 32.6782L237.063 36.7435V37.8946C237.044 38.267 236.935 38.6293 236.744 38.9496C236.554 39.27 236.287 39.5387 235.969 39.7321ZM245.512 33.3204L244.845 36.8462L241.32 37.5118C240.958 37.6018 240.579 37.6012 240.216 37.51C239.854 37.4189 239.519 37.24 239.243 36.9892L238.43 36.1775V30.4298H244.177L244.989 31.2415C245.24 31.5186 245.419 31.8532 245.51 32.2157C245.601 32.5782 245.602 32.9576 245.512 33.3204ZM247.732 27.9689C247.539 28.2879 247.271 28.5546 246.951 28.7458C246.631 28.937 246.269 29.0467 245.896 29.0653H244.743L240.678 25.0001L244.743 20.9376H245.895C246.267 20.956 246.629 21.0653 246.949 21.256C247.269 21.4467 247.537 21.7129 247.73 22.0314L249.75 25.0001L247.732 27.9689Z" fill="#414141"/>
<line x1="269.75" y1="24.25" x2="468.25" y2="24.25" stroke="#414141" stroke-width="1.5" stroke-linecap="round"/>
<line x1="0.75" y1="24.25" x2="199.25" y2="24.25" stroke="#414141" stroke-width="1.5" stroke-linecap="round"/>
</svg>
